<svg xmlns="http://www.w3.org/2000/svg" viewBox="0 0 25 25" width="40px" height="40px" data-v-a2ac2cea=""><g id="surface138412731" data-v-a2ac2cea=""><path style="stroke:none;fill-rule:nonzero;fill:rgb(63,81,181);fill-opacity:1;" d="M 21.875 19.269531 C 21.875 20.710938 20.710938 21.875 19.269531 21.875 L 5.730469 21.875 C 4.292969 21.875 3.125 20.710938 3.125 19.269531 L 3.125 5.730469 C 3.125 4.289062 4.292969 3.125 5.730469 3.125 L 19.269531 3.125 C 20.710938 3.125 21.875 4.289062 21.875 5.730469 Z M 21.875 19.269531 " data-v-a2ac2cea=""></path><path style="stroke:none;fill-rule:nonzero;fill:rgb(100%,100%,100%);fill-opacity:1;" d="M 17.898438 13.019531 L 16.144531 13.019531 L 16.144531 19.792969 L 13.542969 19.792969 L 13.542969 13.019531 L 11.980469 13.019531 L 11.980469 10.9375 L 13.542969 10.9375 L 13.542969 9.683594 C 13.542969 7.855469 14.300781 6.769531 16.453125 6.769531 L 18.230469 6.769531 L 18.230469 8.855469 L 17.039062 8.855469 C 16.199219 8.855469 16.144531 9.167969 16.144531 9.75 L 16.144531 10.9375 L 18.230469 10.9375 Z M 17.898438 13.019531 " data-v-a2ac2cea=""></path></g></svg>