<svg xmlns="http://www.w3.org/2000/svg" width="90.078" height="90.078" viewBox="0 0 90.078 90.078">
  <g id="Group_1192" data-name="Group 1192" transform="translate(-2482.281 254.437)">
    <g id="Group_1191" data-name="Group 1191" transform="translate(2482.281 -254.437)">
      <path id="Path_75" data-name="Path 75" d="M15.118,0H74.96A15.118,15.118,0,0,1,90.078,15.118V74.96A15.118,15.118,0,0,1,74.96,90.078H15.118A15.118,15.118,0,0,1,0,74.96V15.118A15.118,15.118,0,0,1,15.118,0Z" fill="#7559fe"/>
      <g id="Group_1190" data-name="Group 1190" transform="translate(11.865 12.091)">
        <path id="Path_72" data-name="Path 72" d="M95.687,141.706a33.226,33.226,0,0,1-10.063-1.56,33.036,33.036,0,1,1,41.5-21.453,5.07,5.07,0,0,1-9.661-3.077,22.938,22.938,0,1,0-13.157,14.249,5.07,5.07,0,1,1,3.841,9.384,33.122,33.122,0,0,1-7.129,2.022A32.686,32.686,0,0,1,95.687,141.706Z" transform="translate(-62.597 -75.614)" fill="#fff"/>
        <circle id="Ellipse_168" data-name="Ellipse 168" cx="1.144" cy="1.144" r="1.144" transform="translate(58.421 55.859)" fill="#fff"/>
        <path id="Ellipse_168_-_Outline" data-name="Ellipse 168 - Outline" d="M-28.786-35a6.221,6.221,0,0,1,6.214,6.214,6.221,6.221,0,0,1-6.214,6.214A6.221,6.221,0,0,1-35-28.786,6.221,6.221,0,0,1-28.786-35Z" transform="translate(88.351 85.79)" fill="#fff"/>
        <circle id="Ellipse_169" data-name="Ellipse 169" cx="8.113" cy="8.113" r="8.113" transform="translate(24.94 24.94)" fill="#fff"/>
        <path id="Ellipse_169_-_Outline" data-name="Ellipse 169 - Outline" d="M-21.818-35A13.2,13.2,0,0,1-8.636-21.818,13.2,13.2,0,0,1-21.818-8.636,13.2,13.2,0,0,1-35-21.818,13.2,13.2,0,0,1-21.818-35Zm0,16.225a3.046,3.046,0,0,0,3.043-3.043,3.046,3.046,0,0,0-3.043-3.043,3.046,3.046,0,0,0-3.043,3.043A3.046,3.046,0,0,0-21.818-18.775Z" transform="translate(54.871 54.871)" fill="#fff"/>
      </g>
    </g>
  </g>
</svg>
